<svg width="46" height="50" viewBox="0 0 46 50" fill="none" xmlns="http://www.w3.org/2000/svg">
<path d="M43.6084 18.7394C47.4528 28.8989 47.0409 40.8905 39.5809 46.3866C32.0751 51.8828 17.5212 50.9251 9.00855 44.7628C0.495856 38.6005 -1.9298 27.1918 1.50273 17.4903C4.98102 7.78876 14.3175 -0.16398 23.0132 0.00256921C31.709 0.210756 39.8098 8.57988 43.6084 18.7394Z" fill="#F0EEE8"/>
<path d="M27.0366 12.0355C26.9916 11.9563 26.9212 11.8914 26.8348 11.8493C26.7483 11.8072 26.6499 11.79 26.5525 11.7998C26.3682 11.8185 22.0005 12.2869 18.5329 14.9904C18.4798 15.0318 18.4372 15.0832 18.408 15.141C18.3788 15.1988 18.3636 15.2616 18.3636 15.3252V16.6483H17.3939C16.237 16.6494 15.1278 17.068 14.3098 17.8121C13.4917 18.5562 13.0315 19.5651 13.0303 20.6174V22.9638C13.0299 23.5364 13.166 24.1023 13.429 24.6225C13.6921 25.1428 14.0759 25.605 14.5542 25.9774L15.0791 26.3868C14.4652 27.6644 14 29.0509 14 30.3197C14 31.6672 14.2943 35.1227 17.0214 38.0993C17.0669 38.1489 17.1238 38.1889 17.1883 38.2163C17.2526 38.2438 17.3228 38.258 17.3939 38.258H25.1515C25.528 38.2579 25.8994 38.1781 26.236 38.0247C26.5726 37.8713 26.8654 37.6487 27.0909 37.3744C27.3164 37.6487 27.6091 37.8714 27.9457 38.0247C28.2824 38.1781 28.6537 38.258 29.0303 38.258C29.4068 38.258 29.7781 38.1781 30.1148 38.0247C30.4515 37.8714 30.7441 37.6487 30.9697 37.3744C31.3267 37.8086 31.8471 38.1079 32.4314 38.215C33.0157 38.3221 33.623 38.2296 34.137 37.9551C34.6511 37.6805 35.0358 37.2433 35.2177 36.727C35.3996 36.2107 35.3659 35.6515 35.1231 35.1563C35.7146 35.095 36.2606 34.8379 36.657 34.4339C37.0534 34.0299 37.2725 33.5073 37.2725 32.9658C37.2725 32.4243 37.0534 31.9018 36.657 31.4977C36.2606 31.0938 35.7146 30.8366 35.1231 30.7753C35.3101 30.3949 35.3742 29.9739 35.3078 29.5616C35.9711 29.1513 37.0546 28.7641 38.6524 28.9914C38.7154 29.0007 38.7799 28.9985 38.842 28.985C38.9041 28.9716 38.9628 28.947 39.0145 28.9129C39.0661 28.8788 39.1099 28.8357 39.1432 28.7861C39.1766 28.7365 39.1988 28.6815 39.2086 28.6241C39.2185 28.5667 39.2158 28.5081 39.2007 28.4516C39.1855 28.3952 39.1583 28.342 39.1206 28.2951C39.0828 28.2483 39.0352 28.2087 38.9805 28.1787C38.9259 28.1486 38.8652 28.1287 38.8021 28.12C38.2968 28.0456 37.7838 28.0246 37.2732 28.0573C37.2269 27.4809 37.0686 26.9164 36.8057 26.3901C36.6695 26.1158 36.5078 25.8525 36.3224 25.6031C36.6315 25.2228 37.2727 24.2126 37.2727 22.3815C37.2727 22.3116 37.2544 22.2427 37.2194 22.1805C37.1844 22.1183 37.1337 22.0645 37.0714 22.0237C37.009 21.9828 36.9369 21.956 36.8609 21.9455C36.785 21.9349 36.7074 21.941 36.6345 21.9631L35.7322 22.2367C35.5298 21.4308 34.8511 20.0063 32.5775 19.317C32.5046 19.2949 32.4271 19.2889 32.3511 19.2994C32.2751 19.3099 32.2031 19.3367 32.1407 19.3776C32.0784 19.4185 32.0276 19.4722 31.9926 19.5344C31.9576 19.5966 31.9394 19.6655 31.9394 19.7354V20.9671C31.1814 20.8618 29.8133 20.7566 28.4278 21.0719C28.3069 21.0993 28.2023 21.1681 28.1357 21.2639C28.0691 21.3596 28.0455 21.4751 28.07 21.5862C28.0885 21.6702 28.4792 23.3933 29.6165 24.4887L28.3286 25.0744C28.2688 25.1016 28.2159 25.1397 28.1731 25.1864C28.1303 25.233 28.0986 25.2872 28.0799 25.3456C28.0612 25.4039 28.056 25.4651 28.0646 25.5254C28.0731 25.5857 28.0953 25.6437 28.1297 25.6958C28.1567 25.7367 28.8068 26.7027 30.1054 26.9682C30.8388 27.1182 31.6162 27.0174 32.4245 26.6687V27.6736C32.4245 27.6884 32.426 27.703 32.4276 27.7177C31.8451 27.8258 31.3263 28.1245 30.9697 28.5572C30.7582 28.2998 30.4873 28.0876 30.1761 27.9357C29.8649 27.7836 29.5208 27.6954 29.1681 27.6772C28.8154 27.659 28.4626 27.7112 28.1345 27.8303C27.8063 27.9493 27.5108 28.1322 27.2687 28.3662C26.8035 26.757 25.8884 25.1405 25.0824 23.9186C23.5481 21.5926 23.2121 20.4287 23.2121 20.1764C23.2121 19.2846 23.483 16.0978 26.9684 12.5311C27.0335 12.4644 27.0749 12.3814 27.0871 12.2929C27.0992 12.2045 27.0817 12.1147 27.0366 12.0355ZM16.5035 23.903L16.4853 23.8897C16.3146 23.7661 16.1768 23.6089 16.0823 23.43C15.9877 23.2512 15.9389 23.0551 15.9394 22.8567V20.6174C15.9398 20.2666 16.0932 19.9304 16.3659 19.6824C16.6386 19.4343 17.0083 19.2948 17.3939 19.2944H18.3636V20.1764C18.3636 20.4281 18.0289 21.5876 16.5035 23.903ZM15.1852 25.3077C14.8132 25.0181 14.5147 24.6586 14.3101 24.254C14.1055 23.8493 13.9997 23.4092 14 22.9638V20.6174C14.001 19.7989 14.3589 19.0143 14.9951 18.4355C15.6314 17.8568 16.4941 17.5312 17.3939 17.5303H18.3636V18.4123H17.3939C16.7512 18.413 16.135 18.6455 15.6805 19.0589C15.226 19.4723 14.9704 20.0328 14.9697 20.6174V22.8567C14.9688 23.1875 15.0502 23.5142 15.2077 23.8124C15.3653 24.1105 15.5949 24.3724 15.8795 24.5785L16.0134 24.676C15.8422 24.9574 15.6711 25.252 15.5049 25.557L15.1852 25.3077ZM14.9697 30.3197C14.9707 30.0806 14.9883 29.8418 15.0223 29.6048L17.5082 30.5469C18.0866 30.7663 18.7103 30.8697 19.3366 30.8501C19.963 30.8304 20.5773 30.6883 21.1378 30.4331L22.6642 29.739C23.1358 29.5259 23.6552 29.4149 24.1819 29.4149C24.7085 29.4149 25.228 29.5259 25.6995 29.739L26.6026 30.1496C26.6047 30.2069 26.606 30.2638 26.606 30.3199C26.606 30.4798 26.6014 30.6429 26.5932 30.8078C26.2391 30.8752 25.9062 31.0138 25.6187 31.2135C25.3312 31.4132 25.0966 31.669 24.932 31.9619C24.7674 32.2549 24.677 32.5777 24.6675 32.9066C24.6579 33.2354 24.7295 33.5621 24.8769 33.8626C24.4527 33.9063 24.0488 34.0513 23.706 34.2827C23.3632 34.5141 23.0938 34.8238 22.9249 35.1804C22.7561 35.5371 22.6938 35.9279 22.7445 36.3135C22.7952 36.6991 22.9569 37.0656 23.2134 37.376H17.6242C15.232 34.6574 14.9697 31.5472 14.9697 30.3197ZM30.9697 34.2889C30.682 34.2889 30.4008 34.2112 30.1615 34.0659C29.9224 33.9205 29.7359 33.7139 29.6258 33.4721C29.5157 33.2304 29.4869 32.9643 29.5431 32.7077C29.5992 32.451 29.7377 32.2153 29.9411 32.0303C30.1446 31.8453 30.4037 31.7192 30.6859 31.6682C30.968 31.6171 31.2605 31.6433 31.5263 31.7435C31.7921 31.8436 32.0192 32.0132 32.1791 32.2308C32.3389 32.4483 32.4242 32.7041 32.4242 32.9658C32.4238 33.3166 32.2704 33.6529 31.9977 33.9009C31.725 34.1489 31.3553 34.2885 30.9697 34.2889ZM27.0909 31.6428C27.3786 31.6428 27.6598 31.7204 27.899 31.8658C28.1382 32.0111 28.3246 32.2177 28.4347 32.4595C28.5448 32.7013 28.5736 32.9673 28.5175 33.2239C28.4614 33.4806 28.3228 33.7163 28.1194 33.9013C27.916 34.0864 27.6568 34.2124 27.3746 34.2634C27.0925 34.3145 26.8 34.2883 26.5343 34.1881C26.2685 34.088 26.0413 33.9184 25.8815 33.7009C25.7217 33.4833 25.6363 33.2275 25.6363 32.9658C25.6368 32.615 25.7902 32.2788 26.0629 32.0308C26.3355 31.7827 26.7052 31.6432 27.0909 31.6428ZM25.1515 37.376C24.8638 37.376 24.5826 37.2983 24.3434 37.153C24.1042 37.0076 23.9177 36.801 23.8077 36.5592C23.6975 36.3175 23.6688 36.0514 23.7249 35.7948C23.781 35.5381 23.9195 35.3024 24.1229 35.1174C24.3264 34.9324 24.5855 34.8063 24.8677 34.7553C25.1498 34.7042 25.4423 34.7304 25.7081 34.8306C25.9739 34.9307 26.2011 35.1003 26.3609 35.3179C26.5207 35.5354 26.606 35.7912 26.606 36.0529C26.6056 36.4037 26.4522 36.74 26.1795 36.988C25.9068 37.236 25.5371 37.3756 25.1515 37.376ZM29.0303 37.376C28.7426 37.376 28.4614 37.2983 28.2221 37.153C27.983 37.0076 27.7965 36.801 27.6865 36.5592C27.5763 36.3175 27.5475 36.0514 27.6037 35.7948C27.6598 35.5381 27.7983 35.3024 28.0017 35.1174C28.2052 34.9324 28.4643 34.8063 28.7465 34.7553C29.0286 34.7042 29.3211 34.7304 29.5869 34.8306C29.8527 34.9307 30.0798 35.1003 30.2397 35.3179C30.3995 35.5354 30.4848 35.7912 30.4848 36.0529C30.4844 36.4037 30.331 36.74 30.0583 36.988C29.7856 37.236 29.4159 37.3756 29.0303 37.376ZM32.9091 37.376C32.6214 37.376 32.3402 37.2983 32.1009 37.153C31.8618 37.0076 31.6753 36.801 31.5652 36.5592C31.4551 36.3175 31.4263 36.0514 31.4825 35.7948C31.5386 35.5381 31.6771 35.3024 31.8805 35.1174C32.084 34.9324 32.3431 34.8063 32.6253 34.7553C32.9074 34.7042 33.1999 34.7304 33.4657 34.8306C33.7315 34.9307 33.9586 35.1003 34.1185 35.3179C34.2783 35.5354 34.3636 35.7912 34.3636 36.0529C34.3632 36.4037 34.2098 36.74 33.9371 36.988C33.6644 37.236 33.2947 37.3756 32.9091 37.376ZM36.303 32.9658C36.303 33.2275 36.2177 33.4833 36.0578 33.7009C35.898 33.9184 35.6709 34.088 35.4051 34.1881C35.1393 34.2883 34.8468 34.3145 34.5647 34.2634C34.2825 34.2124 34.0234 34.0864 33.8199 33.9013C33.6165 33.7163 33.478 33.4806 33.4218 33.2239C33.3657 32.9673 33.3945 32.7013 33.5046 32.4595C33.6147 32.2177 33.8012 32.0111 34.0403 31.8658C34.2795 31.7204 34.5608 31.6428 34.8485 31.6428C35.2341 31.6432 35.6038 31.7827 35.8765 32.0308C36.1492 32.2788 36.3026 32.615 36.303 32.9658ZM34.9655 28.7131C34.6663 28.2777 34.2101 27.9503 33.675 27.787C34.2028 27.4958 35.0144 26.9912 35.6826 26.3309C35.7611 26.4531 35.833 26.5783 35.8985 26.7062C36.1408 27.175 36.2808 27.6822 36.3106 28.1996C35.8368 28.3095 35.3835 28.4825 34.9655 28.7131ZM30.3295 26.1098C29.9483 26.0291 29.5976 25.8573 29.3137 25.6122L30.7016 24.981C30.7775 24.9464 30.8422 24.8943 30.8891 24.8299C30.9359 24.7655 30.9634 24.691 30.9686 24.6139C30.9739 24.5369 30.9569 24.4599 30.9191 24.3907C30.8814 24.3214 30.8244 24.2625 30.7537 24.2196C29.8453 23.6688 29.3511 22.4755 29.1424 21.8367C30.7681 21.5886 32.2903 21.9237 32.3066 21.9273C32.378 21.9435 32.4527 21.9448 32.5248 21.9309C32.5968 21.917 32.6645 21.8883 32.7226 21.8471C32.7806 21.8058 32.8277 21.7531 32.86 21.6928C32.8923 21.6326 32.9091 21.5665 32.9091 21.4994V20.391C34.8023 21.2417 34.8474 22.7547 34.8485 22.8225C34.8485 22.8924 34.8667 22.9612 34.9017 23.0235C34.9367 23.0857 34.9875 23.1394 35.0498 23.1803C35.1122 23.2212 35.1842 23.248 35.2602 23.2585C35.3361 23.269 35.4137 23.263 35.4866 23.2409L36.274 23.0022C36.2066 23.7 36.0344 24.201 35.8848 24.5208C35.8273 24.6446 35.7611 24.7649 35.6866 24.881C34.626 23.8547 33.2385 23.2239 32.1048 22.849C32.045 22.8292 31.9814 22.8203 31.9178 22.8229C31.8542 22.8254 31.7918 22.8394 31.734 22.8638C31.6763 22.8883 31.6245 22.9229 31.5815 22.9656C31.5385 23.0084 31.5052 23.0584 31.4834 23.1128C31.4617 23.1672 31.4519 23.225 31.4547 23.2829C31.4575 23.3407 31.4728 23.3975 31.4997 23.45C31.5266 23.5025 31.5647 23.5497 31.6117 23.5887C31.6586 23.6279 31.7136 23.6582 31.7734 23.678C33.217 24.1555 34.3301 24.7992 35.1007 25.5989C34.5781 26.1557 33.8982 26.6102 33.3938 26.9055V25.9096C33.3938 25.8298 33.37 25.7514 33.3249 25.683C33.2798 25.6145 33.2151 25.5584 33.1378 25.5208C33.0604 25.4831 32.9732 25.4652 32.8855 25.4691C32.7979 25.4729 32.7131 25.4984 32.64 25.5427C31.7939 26.0557 31.0164 26.2464 30.3295 26.1098ZM32.9091 28.5557C33.1968 28.5557 33.478 28.6333 33.7172 28.7787C33.9563 28.924 34.1428 29.1306 34.2529 29.3724C34.363 29.6142 34.3918 29.8802 34.3357 30.1368C34.2795 30.3935 34.141 30.6292 33.9376 30.8142C33.7341 30.9993 33.475 31.1253 33.1928 31.1763C32.9107 31.2274 32.6182 31.2012 32.3525 31.101C32.0866 31.0009 31.8595 30.8313 31.6997 30.6138C31.5398 30.3962 31.4545 30.1404 31.4545 29.8787C31.4549 29.5279 31.6083 29.1917 31.8811 28.9437C32.1537 28.6956 32.5234 28.5561 32.9091 28.5557ZM29.0303 28.5557C29.318 28.5557 29.5992 28.6333 29.8384 28.7787C30.0775 28.924 30.264 29.1306 30.3741 29.3724C30.4842 29.6142 30.513 29.8802 30.4569 30.1368C30.4008 30.3935 30.2622 30.6292 30.0588 30.8142C29.8554 30.9993 29.5962 31.1253 29.314 31.1763C29.0319 31.2274 28.7394 31.2012 28.4737 31.101C28.2078 31.0009 27.9807 30.8313 27.8209 30.6138C27.6611 30.3962 27.5757 30.1404 27.5757 29.8787C27.5762 29.5279 27.7295 29.1917 28.0023 28.9437C28.2749 28.6956 28.6446 28.5561 29.0303 28.5557ZM22.2424 20.1764C22.2424 20.7332 22.77 22.1275 24.2509 24.3724C25.4171 26.1403 26.1667 27.748 26.4625 29.0996L26.1333 28.9498C25.5269 28.6758 24.8591 28.5332 24.182 28.5332C23.5049 28.5332 22.8371 28.6758 22.2308 28.9498L20.7043 29.644C20.2684 29.8424 19.7906 29.953 19.3034 29.9682C18.8163 29.9835 18.3312 29.9031 17.8813 29.7325L15.2063 28.719C15.5506 27.45 16.2663 25.9771 17.3248 24.3724C18.8057 22.1275 19.3333 20.7332 19.3333 20.1764V15.5306C21.4337 13.9551 23.9041 13.2213 25.3728 12.9011C22.484 16.3124 22.2424 19.2881 22.2424 20.1764Z" fill="#BC6E44"/>
</svg>
