<svg width="46" height="50" viewBox="0 0 46 50" fill="none" xmlns="http://www.w3.org/2000/svg">
<g clip-path="url(#clip0_332_2)">
<path d="M32.2212 14.3373C37.9959 20.4666 45.3314 25.7647 45.9557 32.2749C46.58 38.7851 40.5321 46.4725 32.7284 49.0004C24.9637 51.563 15.5212 48.8965 10.2147 44.4295C4.90818 39.9278 3.77664 33.5561 2.2159 27.323C0.655159 21.1245 -1.33479 15.0299 1.24044 9.52398C3.81566 4.01807 10.9561 -0.899168 16.6137 0.139684C22.2714 1.17854 26.4854 8.17349 32.2212 14.3373Z" fill="#F0EEE8"/>
<path d="M38.2517 35.6119H36.5056V33.8478C36.5056 33.7309 36.4596 33.6187 36.3777 33.536C36.2959 33.4533 36.1848 33.4068 36.069 33.4068C35.8375 33.4068 35.6154 33.3139 35.4517 33.1485C35.288 32.9831 35.196 32.7587 35.196 32.5248C35.196 32.2909 35.288 32.0665 35.4517 31.9011C35.6154 31.7357 35.8375 31.6428 36.069 31.6428C36.1848 31.6428 36.2959 31.5963 36.3777 31.5136C36.4596 31.4309 36.5056 31.3187 36.5056 31.2017V28.1146C36.5056 27.9977 36.4596 27.8855 36.3777 27.8028C36.2959 27.7201 36.1848 27.6736 36.069 27.6736H27.3383C27.2225 27.6736 27.1115 27.7201 27.0296 27.8028C26.9478 27.8855 26.9018 27.9977 26.9018 28.1146C26.9018 28.3486 26.8098 28.5729 26.6461 28.7384C26.4823 28.9037 26.2602 28.9967 26.0287 28.9967C25.7972 28.9967 25.5751 28.9037 25.4113 28.7384C25.2476 28.5729 25.1556 28.3486 25.1556 28.1146C25.1556 27.9977 25.1096 27.8855 25.0278 27.8028C24.9459 27.7201 24.8349 27.6736 24.7191 27.6736H22.0999C21.9841 27.6736 21.8731 27.7201 21.7912 27.8028C21.7094 27.8855 21.6634 27.9977 21.6634 28.1146V29.8787C21.6634 29.9957 21.7094 30.1079 21.7912 30.1906C21.8731 30.2732 21.9841 30.3197 22.0999 30.3197C22.563 30.3197 23.0071 30.5056 23.3346 30.8364C23.6621 31.1672 23.846 31.6159 23.846 32.0838C23.846 32.5516 23.6621 33.0003 23.3346 33.3311C23.0071 33.662 22.563 33.8478 22.0999 33.8478C21.9841 33.8478 21.8731 33.8943 21.7912 33.977C21.7094 34.0597 21.6634 34.1719 21.6634 34.2888V35.6119H19.8716C19.632 35.3279 19.4807 35.0295 19.4807 34.7299V26.7916C19.4807 26.6621 19.5417 26.2907 20.0853 25.5736C21.1854 25.1739 22.1368 24.4412 22.8098 23.4753C23.4828 22.5095 23.8446 21.3575 23.846 20.1764C23.846 17.0299 21.7149 12.2573 21.6242 12.0556C21.5895 11.9785 21.5336 11.9132 21.4631 11.8674C21.3927 11.8215 21.3106 11.7971 21.2268 11.7971H15.1153C15.0315 11.7971 14.9494 11.8215 14.879 11.8674C14.8085 11.9132 14.7526 11.9785 14.7179 12.0556C14.6272 12.2573 12.4961 17.0299 12.4961 20.1764C12.4975 21.3575 12.8593 22.5095 13.5323 23.4753C14.2054 24.4412 15.1567 25.1739 16.2569 25.5736C16.8004 26.2907 16.8615 26.6621 16.8615 26.7916V34.7299C16.8615 35.9175 14.4848 37.0877 13.6524 37.404C13.5567 37.4403 13.4766 37.5094 13.426 37.5992C13.3756 37.6891 13.3579 37.794 13.3761 37.8956C13.3944 37.9973 13.4474 38.0893 13.5259 38.1555C13.6044 38.2217 13.7034 38.258 13.8057 38.258H36.5056C37.0843 38.2573 37.6391 38.0248 38.0482 37.6114C38.4574 37.198 38.6876 36.6375 38.6883 36.0529C38.6883 35.9359 38.6423 35.8237 38.5604 35.7411C38.4786 35.6584 38.3675 35.6119 38.2517 35.6119ZM33.4498 28.5557C33.4498 28.9065 33.3118 29.2431 33.0663 29.4912C32.8207 29.7393 32.4875 29.8787 32.1402 29.8787C31.7929 29.8787 31.4598 29.7393 31.2142 29.4912C30.9686 29.2431 30.8306 28.9065 30.8306 28.5557H33.4498ZM22.5364 34.6931C23.1468 34.5888 23.7008 34.2696 24.1004 33.7919C24.5 33.3143 24.7192 32.7091 24.7192 32.0838C24.7192 31.4584 24.5 30.8533 24.1004 30.3756C23.7008 29.898 23.1468 29.5787 22.5364 29.4745V28.5557H24.3378C24.4344 28.9345 24.653 29.2702 24.9591 29.5098C25.2652 29.7494 25.6415 29.8795 26.0287 29.8795C26.4159 29.8795 26.7922 29.7494 27.0983 29.5098C27.4044 29.2702 27.6229 28.9345 27.7196 28.5557H29.9575C29.9575 29.1405 30.1875 29.7014 30.5968 30.1149C31.0062 30.5284 31.5613 30.7607 32.1402 30.7607C32.7191 30.7607 33.2743 30.5284 33.6836 30.1149C34.093 29.7014 34.3229 29.1405 34.3229 28.5557H35.6325V30.8165C35.2577 30.9143 34.9256 31.1352 34.6886 31.4444C34.4515 31.7536 34.3229 32.1337 34.3229 32.5248C34.3229 32.9159 34.4515 33.296 34.6886 33.6052C34.9256 33.9144 35.2577 34.1353 35.6325 34.2331V35.6119H22.5364V34.6931ZM15.4005 12.6791H20.9416C21.3011 13.5216 22.4218 16.2664 22.8256 18.6378C22.2618 18.8833 21.1924 19.2944 20.3537 19.2944C19.8389 19.2944 19.12 18.7756 18.4248 18.274C17.6176 17.6916 16.7831 17.0893 15.9884 17.0893C15.3714 17.0893 14.6218 17.33 13.7604 17.8047C13.7303 17.8212 13.701 17.8377 13.6717 17.8543C14.1552 15.6923 15.0801 13.43 15.4005 12.6791ZM13.3692 20.1764C13.3722 19.7892 13.4016 19.4027 13.4572 19.0197C14.0552 18.6155 15.1792 17.9713 15.9884 17.9713C16.5033 17.9713 17.2221 18.4901 17.9173 18.9917C18.7245 19.5741 19.559 20.1764 20.3537 20.1764C21.2415 20.1764 22.2832 19.8167 22.9443 19.5447C22.9629 19.7623 22.973 19.9736 22.973 20.1764C22.973 21.463 22.4671 22.6969 21.5665 23.6067C20.666 24.5165 19.4446 25.0275 18.1711 25.0275C16.8975 25.0275 15.6762 24.5165 14.7756 23.6067C13.8751 22.6969 13.3692 21.463 13.3692 20.1764ZM15.6754 37.3759C15.7113 37.3539 15.7473 37.3316 15.7832 37.3089C17.078 36.4914 17.7345 35.6236 17.7345 34.7299V26.7916C17.7345 26.5191 17.6478 26.2097 17.4771 25.8666C17.938 25.9239 18.4041 25.9239 18.865 25.8666C18.6943 26.2097 18.6076 26.5191 18.6076 26.7916V34.7299C18.6076 35.6236 19.2641 36.4914 20.5589 37.3089C20.5949 37.3316 20.6308 37.354 20.6667 37.3759H15.6754ZM36.5056 37.3759H22.6175C22.0267 37.1357 21.4593 36.8404 20.9226 36.4939H37.7402C37.6496 36.7516 37.4823 36.9748 37.2613 37.1327C37.0403 37.2906 36.7763 37.3756 36.5056 37.3759Z" fill="#BC6E44"/>
<path d="M27.7745 30.7607C27.4291 30.7607 27.0915 30.8642 26.8044 31.058C26.5172 31.2519 26.2934 31.5274 26.1612 31.8497C26.0291 32.172 25.9945 32.5267 26.0619 32.869C26.1293 33.2111 26.2955 33.5255 26.5398 33.7722C26.784 34.0189 27.0951 34.1869 27.4338 34.255C27.7726 34.323 28.1236 34.2881 28.4427 34.1546C28.7617 34.0211 29.0345 33.795 29.2263 33.5048C29.4182 33.2148 29.5206 32.8737 29.5206 32.5248C29.5201 32.0571 29.336 31.6087 29.0086 31.278C28.6813 30.9473 28.2374 30.7613 27.7745 30.7607ZM27.7745 33.4068C27.6018 33.4068 27.433 33.3551 27.2894 33.2582C27.1459 33.1612 27.0339 33.0235 26.9679 32.8623C26.9018 32.7011 26.8845 32.5238 26.9181 32.3528C26.9519 32.1816 27.035 32.0245 27.1571 31.9011C27.2792 31.7778 27.4348 31.6938 27.6042 31.6597C27.7735 31.6257 27.949 31.6432 28.1086 31.7099C28.2681 31.7767 28.4044 31.8897 28.5004 32.0348C28.5964 32.1798 28.6475 32.3503 28.6475 32.5248C28.6473 32.7586 28.5552 32.9828 28.3915 33.1482C28.2279 33.3136 28.0059 33.4066 27.7745 33.4068Z" fill="#BC6E44"/>
<path d="M32.1397 32.0837C31.8807 32.0837 31.6275 32.1614 31.4121 32.3067C31.1968 32.4521 31.0289 32.6587 30.9298 32.9005C30.8306 33.1422 30.8047 33.4083 30.8552 33.6649C30.9058 33.9216 31.0305 34.1573 31.2136 34.3423C31.3968 34.5273 31.6301 34.6534 31.8842 34.7044C32.1382 34.7555 32.4016 34.7293 32.6408 34.6291C32.8802 34.529 33.0847 34.3594 33.2286 34.1418C33.3725 33.9243 33.4493 33.6685 33.4493 33.4068C33.4489 33.056 33.3108 32.7197 33.0653 32.4717C32.8198 32.2237 32.4869 32.0841 32.1397 32.0837ZM32.1397 33.8478C32.0534 33.8478 31.969 33.8219 31.8971 33.7735C31.8254 33.725 31.7694 33.6561 31.7364 33.5755C31.7033 33.495 31.6947 33.4063 31.7116 33.3207C31.7284 33.2352 31.77 33.1566 31.831 33.0949C31.8921 33.0332 31.9698 32.9912 32.0545 32.9743C32.1392 32.9572 32.227 32.9659 32.3067 32.9993C32.3865 33.0327 32.4547 33.0893 32.5027 33.1617C32.5506 33.2343 32.5762 33.3196 32.5762 33.4068C32.5761 33.5237 32.5301 33.6358 32.4482 33.7185C32.3664 33.8012 32.2554 33.8477 32.1397 33.8478Z" fill="#BC6E44"/>
</g>
<defs>
<clipPath id="clip0_332_2">
<rect width="46" height="50" fill="white"/>
</clipPath>
</defs>
</svg>
