<svg width="14" height="26" viewBox="0 0 14 26" fill="none" xmlns="http://www.w3.org/2000/svg">
<path d="M0.35304 2.10906C0.240268 1.98972 0.152105 1.84934 0.093586 1.69593C0.0350666 1.54252 0.00733594 1.37908 0.0119789 1.21496C0.0166218 1.05083 0.0535469 0.889222 0.120645 0.739365C0.187744 0.589508 0.283701 0.454334 0.40304 0.341561C0.522379 0.228789 0.662762 0.140626 0.816173 0.0821065C0.969584 0.0235871 1.13302 -0.00414293 1.29715 0.000500002C1.46127 0.00514293 1.62288 0.0420677 1.77274 0.109166C1.92259 0.176265 2.05777 0.272223 2.17054 0.391561L12.7955 11.6416C13.015 11.8736 13.1372 12.1809 13.1372 12.5003C13.1372 12.8197 13.015 13.127 12.7955 13.3591L2.17054 24.6103C2.05851 24.7323 1.92337 24.8307 1.77296 24.9C1.62255 24.9693 1.45988 25.008 1.29438 25.0139C1.12889 25.0198 0.963878 24.9927 0.808932 24.9343C0.653986 24.8758 0.512195 24.7872 0.391794 24.6735C0.271393 24.5598 0.174783 24.4233 0.107575 24.272C0.0403674 24.1206 0.00390194 23.9574 0.000296355 23.7919C-0.00330923 23.6263 0.0260167 23.4617 0.0865717 23.3076C0.147127 23.1534 0.237703 23.0129 0.35304 22.8941L10.168 12.5003L0.35304 2.10906Z" fill="#BC6E44"/>
</svg>
