<svg width="14" height="26" viewBox="0 0 14 26" fill="none" xmlns="http://www.w3.org/2000/svg">
<path d="M12.7842 2.10906C12.8969 1.98972 12.9851 1.84934 13.0436 1.69593C13.1021 1.54252 13.1299 1.37908 13.1252 1.21496C13.1206 1.05083 13.0837 0.889222 13.0166 0.739365C12.9495 0.589508 12.8535 0.454334 12.7342 0.341561C12.6148 0.228789 12.4744 0.140626 12.321 0.0821065C12.1676 0.0235871 12.0042 -0.00414293 11.8401 0.000500002C11.6759 0.00514293 11.5143 0.0420677 11.3645 0.109166C11.2146 0.176265 11.0794 0.272223 10.9667 0.391561L0.341667 11.6416C0.122247 11.8736 -1.3113e-05 12.1809 -1.3113e-05 12.5003C-1.3113e-05 12.8197 0.122247 13.127 0.341667 13.3591L10.9667 24.6103C11.0787 24.7323 11.2138 24.8307 11.3642 24.9C11.5147 24.9693 11.6773 25.008 11.8428 25.0139C12.0083 25.0198 12.1733 24.9927 12.3283 24.9343C12.4832 24.8758 12.625 24.7872 12.7454 24.6735C12.8658 24.5598 12.9624 24.4233 13.0296 24.272C13.0968 24.1206 13.1333 23.9574 13.1369 23.7919C13.1405 23.6263 13.1112 23.4617 13.0506 23.3076C12.9901 23.1534 12.8995 23.0129 12.7842 22.8941L2.96917 12.5003L12.7842 2.10906Z" fill="#BC6E44"/>
</svg>
